<svg width="1184" height="525" viewBox="0 0 1184 525" fill="none" xmlns="http://www.w3.org/2000/svg">
<path d="M799.943 418.284V356.176L1021.03 6.86273H1070.19V98.8235H1038.56L880.399 348.627V352.745H1184V418.284H799.943ZM1042 518.137V399.412L1042.69 370.931V6.86273H1116.27V518.137H1042Z" fill="black"/>
<path d="M590.797 525C551.371 525 517.561 514.706 489.367 494.118C461.403 473.529 439.971 443.791 425.071 404.902C410.401 365.784 403.066 318.431 403.066 262.843C403.066 207.484 410.516 160.245 425.415 121.127C440.315 81.781 461.747 51.8137 489.711 31.2255C517.905 10.4085 551.601 0 590.797 0C630.223 0 663.918 10.4085 691.883 31.2255C720.077 51.8137 741.509 81.781 756.179 121.127C771.078 160.245 778.528 207.484 778.528 262.843C778.528 318.431 771.193 365.784 756.523 404.902C741.853 443.791 720.535 473.529 692.57 494.118C664.606 514.706 630.681 525 590.797 525ZM590.797 459.118C614.865 459.118 635.151 451.454 651.655 436.127C668.159 420.801 680.766 398.497 689.476 369.216C698.186 339.706 702.541 304.248 702.541 262.843C702.541 221.209 698.186 185.752 689.476 156.471C680.766 126.961 668.159 104.542 651.655 89.2157C635.151 73.6601 614.865 65.8824 590.797 65.8824C555.268 65.8824 527.762 83.1536 508.278 117.696C489.024 152.01 479.396 200.392 479.396 262.843C479.396 304.248 483.752 339.706 492.462 369.216C501.172 398.497 513.779 420.801 530.283 436.127C547.016 451.454 567.187 459.118 590.797 459.118Z" fill="black"/>
<path d="M0 418.284V356.176L221.082 6.86273H270.25V98.8235H238.617L80.456 348.627V352.745H384.057V418.284H0ZM242.056 518.137V399.412L242.743 370.931V6.86273H316.323V518.137H242.056Z" fill="black"/>
</svg>
