<svg width="28" height="28" viewBox="0 0 28 28" fill="none" xmlns="http://www.w3.org/2000/svg">
<g clip-path="url(#clip0_2612_1967)">
<path d="M20.0347 6.92893C20.3601 6.6035 20.8878 6.6035 21.2132 6.92893V6.92893C21.5386 7.25437 21.5386 7.78201 21.2132 8.10744L8.24958 21.0711C7.92414 21.3965 7.3965 21.3965 7.07107 21.0711V21.0711C6.74563 20.7456 6.74563 20.218 7.07107 19.8926L20.0347 6.92893Z" fill="black"/>
<path d="M7.07114 8.1074C6.74571 7.78196 6.74571 7.25432 7.07114 6.92889V6.92889C7.39658 6.60345 7.92422 6.60345 8.24966 6.92889L21.2133 19.8925C21.5387 20.2179 21.5387 20.7456 21.2133 21.071V21.071C20.8878 21.3965 20.3602 21.3965 20.0348 21.071L7.07114 8.1074Z" fill="black"/>
</g>
<defs>
<clipPath id="clip0_2612_1967">
<rect width="28" height="28" fill="white"/>
</clipPath>
</defs>
</svg>
