<svg xmlns="http://www.w3.org/2000/svg" width="265.785" height="265.785" viewBox="0 0 265.785 265.785">
  <path id="icon__plus--black" d="M310.969-629.022l-70.03,70.03a13.552,13.552,0,0,1-10,3.93,13.552,13.552,0,0,1-10-3.93A13.552,13.552,0,0,1,217-569a13.552,13.552,0,0,1,3.93-10l70.03-70.03-70.03-70.03a13.552,13.552,0,0,1-3.93-10,13.552,13.552,0,0,1,3.93-10,13.552,13.552,0,0,1,10-3.93,13.552,13.552,0,0,1,10,3.93l70.03,70.03L381-739.07A13.552,13.552,0,0,1,391-743a13.552,13.552,0,0,1,10,3.93,13.552,13.552,0,0,1,3.93,10,13.552,13.552,0,0,1-3.93,10l-70.03,70.03L401.009-579a13.552,13.552,0,0,1,3.93,10,13.552,13.552,0,0,1-3.93,10,13.552,13.552,0,0,1-10,3.93,13.552,13.552,0,0,1-10-3.93Z" transform="translate(-545.93 371.938) rotate(45)"/>
</svg>
