<svg width="20" height="20" viewBox="0 0 20 20" fill="none" xmlns="http://www.w3.org/2000/svg">
<path d="M14.168 2.91669H5.83464C3.33464 2.91669 1.66797 4.16669 1.66797 7.08335V12.9167C1.66797 15.8334 3.33464 17.0834 5.83464 17.0834H14.168C16.668 17.0834 18.3346 15.8334 18.3346 12.9167V7.08335C18.3346 4.16669 16.668 2.91669 14.168 2.91669ZM14.5596 7.99169L11.9513 10.075C11.4013 10.5167 10.7013 10.7334 10.0013 10.7334C9.3013 10.7334 8.59297 10.5167 8.0513 10.075L5.44297 7.99169C5.1763 7.77502 5.13464 7.37502 5.34297 7.10835C5.55964 6.84169 5.9513 6.79169 6.21797 7.00835L8.8263 9.09169C9.45964 9.60002 10.5346 9.60002 11.168 9.09169L13.7763 7.00835C14.043 6.79169 14.443 6.83335 14.6513 7.10835C14.868 7.37502 14.8263 7.77502 14.5596 7.99169Z" fill="black"/>
</svg>
