<?xml version="1.0" encoding="UTF-8"?>
<svg id="a" data-name="Ebene 1" xmlns="http://www.w3.org/2000/svg" viewBox="0 0 212.83 120.89">
  <defs>
    <style>
      .b {
        fill: #f39325;
      }

      .c {
        fill: #7f7b74;
      }
    </style>
  </defs>
  <g>
    <path class="c" d="M14.51,98.88l-3.13-.73c-3.53-.83-3.94-2.57-3.94-3.81,0-2.62,2.76-4.37,5.34-4.37,2.9,0,5.06,1.67,5.24,4.07v.13h1.77v-.16c-.24-3.41-3.05-5.7-7.01-5.7-3.41,0-7.1,2.3-7.1,6.02,0,2.82,1.78,4.64,5.3,5.42l3.13.69c2.15.51,4.72,1.67,4.72,4.35,0,2.27-2.08,4.69-5.93,4.69-2.43,0-5.23-1.52-5.63-4.33l-.02-.13h-1.76l.02.16c.29,2.88,2.97,5.95,7.39,5.95,4.99,0,7.69-3.31,7.69-6.43,0-2.87-2.1-4.89-6.09-5.83Z"/>
    <path class="c" d="M35.73,104.51c0,2.95-1.95,5-4.75,5h-.43c-2.8,0-4.75-2.06-4.75-5v-8.77h-1.73v8.81c0,3.96,2.56,6.62,6.38,6.62h.62c3.82,0,6.38-2.66,6.38-6.62v-8.81h-1.73v8.77Z"/>
    <path class="c" d="M48.96,95.39c-1.93,0-4.27.77-5.37,2.87v-2.49h-1.73v15.05h1.73v-8.45c.1-3.9,2.79-5.29,5.27-5.29,2.78,0,4.72,2.06,4.72,5.01v8.74h1.73v-8.8c0-3.96-2.55-6.62-6.35-6.62Z"/>
    <path class="c" d="M65.77,102.6l-2.25-.51c-1.18-.25-2.59-.89-2.59-2.54,0-1.49,1.39-2.57,3.31-2.57,1.71,0,3.04.96,3.22,2.34l.02.13h1.69v-.16c-.17-2.33-2.16-3.9-4.95-3.9s-5.01,1.8-5.01,4.19c0,2.15,1.28,3.48,3.9,4.06l2.25.5c1.7.43,2.6,1.33,2.6,2.61,0,1.71-1.52,2.86-3.77,2.86-2.83,0-3.7-1.81-3.94-2.58l-.03-.1h-1.65l.03.17c.46,2.84,3.14,4.1,5.59,4.1,3.24,0,5.5-1.81,5.5-4.41,0-1.22-.51-3.39-3.9-4.19Z"/>
    <path class="c" d="M80.36,95.39c-1.93,0-4.27.77-5.37,2.87v-10.52h-1.73v23.08h1.73v-8.45c.1-3.9,2.79-5.29,5.27-5.29,2.78,0,4.72,2.06,4.72,5.01v8.74h1.73v-8.8c0-3.96-2.55-6.62-6.35-6.62Z"/>
    <path class="c" d="M92.15,89.2c-.79,0-1.39.55-1.39,1.28s.61,1.25,1.39,1.25,1.42-.54,1.42-1.25-.61-1.28-1.42-1.28Z"/>
    <rect class="c" x="91.28" y="95.77" width="1.73" height="15.05"/>
    <path class="c" d="M104.88,95.39c-1.93,0-4.27.77-5.37,2.87v-2.49h-1.73v15.05h1.73v-8.45c.1-3.9,2.79-5.29,5.27-5.29,2.78,0,4.72,2.06,4.72,5.01v8.74h1.73v-8.8c0-3.96-2.55-6.62-6.35-6.62Z"/>
    <path class="c" d="M122.57,95.39c-4.55,0-7.85,3.3-7.85,7.86s3.3,7.95,7.85,7.95c2.87,0,5.42-1.39,6.82-3.7l.08-.14-1.54-.72-.07.11c-1.1,1.76-3.07,2.81-5.26,2.81-3.38,0-5.76-2.17-6.11-5.55h13.69v-.75c0-4.63-3.13-7.86-7.62-7.86ZM128.45,102.5h-11.95c.37-3.32,2.74-5.46,6.07-5.46s5.6,2.19,5.88,5.46Z"/>
    <polygon class="c" points="152.52 88.76 145.12 98.74 137.79 88.76 135.66 88.76 144.23 100.36 144.23 110.82 145.99 110.82 145.99 100.39 154.65 88.76 152.52 88.76"/>
    <path class="c" d="M160.59,95.39c-4.7,0-8.11,3.3-8.11,7.86s3.41,7.95,8.11,7.95,8.11-3.42,8.11-7.95-3.41-7.86-8.11-7.86ZM166.98,103.25c0,3.65-2.68,6.3-6.38,6.3s-6.38-2.65-6.38-6.3,2.68-6.21,6.38-6.21,6.38,2.67,6.38,6.21Z"/>
    <path class="c" d="M185.75,98.7c-1.4-2.05-3.83-3.31-6.45-3.31-4.49,0-8.01,3.47-8.01,7.89s3.52,7.92,8.01,7.92c2.6,0,5.07-1.27,6.45-3.28v.82c0,5.5-2.04,7.94-6.61,7.94-2.06,0-3.91-.94-5.07-2.59l-.08-.11-1.46.84.09.13c1.47,2.15,3.85,3.38,6.52,3.38,5.69,0,8.34-3.07,8.34-9.66v-12.91h-1.73v2.93ZM185.75,103.41c0,3.44-2.8,6.14-6.38,6.14s-6.35-2.81-6.35-6.27,2.85-6.24,6.35-6.24,6.38,2.8,6.38,6.36Z"/>
    <path class="c" d="M205.62,95.77v2.98c-1.38-2.08-3.8-3.36-6.45-3.36-4.42,0-8.01,3.54-8.01,7.89s3.58,7.92,7.98,7.92c2.67,0,5.1-1.31,6.48-3.44v3.06h1.73v-15.05h-1.73ZM205.62,103.41c0,3.44-2.8,6.14-6.38,6.14s-6.35-2.81-6.35-6.27,2.83-6.24,6.32-6.24,6.41,2.8,6.41,6.36Z"/>
  </g>
  <g>
    <path class="b" d="M96.58,37.25l-19.34-3.93c-.35-.07-.67.15-.74.49-.07.34.15.67.49.74l19.34,3.93c.06-.42.14-.83.25-1.23Z"/>
    <path class="b" d="M115.91,42.47l19.34,3.93s.09.01.13.01c.29,0,.56-.21.62-.5.07-.34-.15-.67-.49-.74l-19.34-3.93c-.06.42-.14.83-.25,1.23Z"/>
    <path class="b" d="M103.64,49.53l-3.93,19.34c-.07.34.15.67.49.74.04,0,.09.01.13.01.29,0,.56-.21.62-.5l3.93-19.34c-.42-.06-.83-.14-1.23-.25Z"/>
    <path class="b" d="M108.86,30.19l3.93-19.34c.07-.34-.15-.67-.49-.74-.35-.07-.67.15-.74.49l-3.93,19.34c.42.06.83.14,1.23.25Z"/>
    <path class="b" d="M101.25,31.18l-10.89-16.46c-.19-.29-.58-.37-.87-.18-.29.19-.37.58-.18.87l10.9,16.46c.33-.25.68-.49,1.05-.7Z"/>
    <path class="b" d="M111.24,48.54l10.89,16.46c.12.18.32.28.53.28.12,0,.24-.03.35-.1.29-.19.37-.58.18-.87l-10.9-16.46c-.33.25-.68.49-1.05.7Z"/>
    <path class="b" d="M97.57,44.85l-16.46,10.89c-.29.19-.37.58-.18.87.12.18.32.28.53.28.12,0,.24-.03.35-.1l16.46-10.9c-.25-.33-.49-.68-.7-1.05Z"/>
    <path class="b" d="M114.93,34.87l16.46-10.89c.29-.19.37-.58.18-.87-.19-.29-.58-.37-.87-.18l-16.46,10.9c.25.33.49.68.7,1.05Z"/>
    <path class="b" d="M116.18,38.62l19.39-3.67c.34-.06.57-.39.5-.73-.07-.34-.4-.57-.74-.5l-19.4,3.67c.1.4.18.81.24,1.24Z"/>
    <path class="b" d="M96.31,41.1l-19.39,3.67c-.34.06-.57.39-.5.73.06.3.32.51.62.51.04,0,.08,0,.12-.01l19.4-3.67c-.1-.4-.18-.81-.24-1.24Z"/>
    <path class="b" d="M105.01,29.92l-3.67-19.39c-.06-.34-.39-.57-.74-.5-.34.06-.57.39-.5.73l3.67,19.4c.4-.1.81-.18,1.24-.24Z"/>
    <path class="b" d="M107.48,49.8l3.67,19.39c.06.3.32.51.62.51.04,0,.08,0,.12-.01.34-.06.57-.39.5-.73l-3.67-19.4c-.4.1-.81.18-1.24.24Z"/>
    <path class="b" d="M114.15,46.01l16.31,11.12c.11.07.23.11.35.11.2,0,.4-.1.52-.27.2-.29.12-.68-.17-.87l-16.31-11.12c-.22.36-.45.71-.71,1.04Z"/>
    <path class="b" d="M98.35,33.71l-16.31-11.12c-.29-.2-.68-.12-.87.16-.2.29-.12.68.17.87l16.31,11.12c.22-.36.45-.71.71-1.04Z"/>
    <path class="b" d="M100.1,47.76l-11.12,16.31c-.2.29-.12.68.17.87.11.07.23.11.35.11.2,0,.4-.1.52-.27l11.12-16.31c-.36-.22-.71-.45-1.04-.71Z"/>
    <path class="b" d="M112.4,31.96l11.12-16.31c.2-.29.12-.68-.17-.87-.29-.2-.68-.12-.87.16l-11.12,16.31c.36.22.71.45,1.04.71Z"/>
    <path class="b" d="M96.26,39.23h-24.75c-.35,0-.63.28-.63.63s.28.63.63.63h24.75c-.01-.21-.03-.42-.03-.63s.02-.42.03-.63Z"/>
    <path class="b" d="M140.99,39.23h-24.75c.01.21.03.42.03.63s-.02.42-.03.63h24.75c.35,0,.63-.28.63-.63s-.28-.63-.63-.63Z"/>
    <path class="b" d="M106.88,29.87V5.12c0-.35-.28-.63-.63-.63s-.63.28-.63.63v24.75c.21-.01.42-.03.63-.03s.42.02.63.03Z"/>
    <path class="b" d="M105.62,49.85v24.75c0,.35.28.63.63.63s.63-.28.63-.63v-24.75c-.21.01-.42.03-.63.03s-.42-.02-.63-.03Z"/>
    <path class="b" d="M112.87,47.37l17.5,17.5c.12.12.28.18.45.18s.32-.06.45-.18c.25-.25.25-.64,0-.89l-17.5-17.5c-.28.32-.57.61-.89.89Z"/>
    <path class="b" d="M99.63,32.35l-17.5-17.5c-.25-.25-.64-.25-.89,0-.25.25-.25.64,0,.89l17.5,17.5c.28-.32.57-.61.89-.89Z"/>
    <path class="b" d="M98.74,46.48l-17.5,17.5c-.25.25-.25.64,0,.89.12.12.28.18.45.18s.32-.06.45-.18l17.5-17.5c-.32-.28-.61-.57-.89-.89Z"/>
    <path class="b" d="M113.76,33.24l17.5-17.5c.25-.25.25-.64,0-.89-.25-.25-.64-.25-.89,0l-17.5,17.5c.32.28.61.57.89.89Z"/>
    <path class="b" d="M115.74,36.66l22.91-9.35c.32-.13.48-.5.35-.82-.13-.32-.5-.47-.82-.34l-22.91,9.35c.18.38.34.76.48,1.16Z"/>
    <path class="b" d="M96.75,43.05l-22.91,9.35c-.32.13-.48.5-.35.82.1.24.33.39.58.39.08,0,.16-.02.24-.05l22.91-9.35c-.18-.38-.34-.76-.48-1.16Z"/>
    <path class="b" d="M109.44,49.35l9.35,22.91c.1.24.33.39.58.39.08,0,.16-.02.24-.05.32-.13.48-.5.35-.82l-9.35-22.91c-.38.18-.76.34-1.16.48Z"/>
    <path class="b" d="M103.05,30.37l-9.35-22.91c-.13-.32-.5-.47-.82-.34-.32.13-.48.5-.35.82l9.35,22.91c.38-.18.76-.34,1.16-.48Z"/>
    <path class="b" d="M115.18,44.38l22.74,9.77c.08.03.16.05.25.05.24,0,.48-.14.58-.38.14-.32-.01-.69-.33-.83l-22.74-9.77c-.14.4-.31.78-.5,1.16Z"/>
    <path class="b" d="M97.31,35.33l-22.74-9.77c-.31-.14-.69,0-.83.33-.14.32.01.69.33.83l22.74,9.77c.14-.4.31-.78.5-1.16Z"/>
    <path class="b" d="M110.7,30.89l9.59-22.81c.14-.32-.02-.69-.34-.82-.32-.13-.69.02-.82.34l-9.59,22.81c.4.14.78.3,1.16.49Z"/>
    <path class="b" d="M101.79,48.83l-9.59,22.81c-.14.32.02.69.34.82.08.03.16.05.24.05.25,0,.48-.15.58-.39l9.59-22.81c-.4-.14-.78-.3-1.16-.49Z"/>
  </g>
</svg>